<?xml version="1.0" encoding="UTF-8"?>
<svg xmlns="http://www.w3.org/2000/svg" width="152.4mm" height="128.5mm" viewBox="0 0 432 364.25">
  <g id="Background">
    <rect id="rect420" width="432" height="364.25" style="fill: #e6e6e6;"/>
    <rect id="rect420-2" data-name="rect420" width="432" height="364.25" style="fill: #e6e6e6;"/>
  </g>
  <g id="Layer_3">
    <g id="layer1">
      <g id="text4">
        <path id="path8" d="M216.31,29.83c-.86,0-1.49-.23-1.9-.7-.41-.47-.54-1.11-.41-1.92l.98-6.26h1.51l-1,6.25c-.07.42-.02.74.14.97.18.23.47.35.88.35s.71-.12.96-.35c.25-.23.41-.56.48-.97l.98-6.25h1.51l-1,6.26c-.13.81-.47,1.45-1.03,1.92-.55.46-1.26.7-2.12.7ZM220.58,29.71l1.39-8.76h1.92l.37,3.77,1.61-3.77h2l-1.39,8.76h-1.4l.59-3.68c.08-.5.18-1.02.29-1.56.11-.54.23-1.07.35-1.57.12-.51.24-.98.35-1.39l-1.93,4.4h-1.22l-.52-4.3c-.02.55-.06,1.21-.12,1.98-.06.76-.16,1.57-.3,2.44l-.58,3.68h-1.4Z"/>
        <path id="path9" d="M230.77,29.83c-.75,0-1.32-.22-1.7-.66-.38-.45-.5-1.04-.38-1.79l.65-4.1c.13-.78.44-1.38.95-1.8.5-.43,1.14-.65,1.92-.65s1.32.23,1.7.7c.38.46.52,1.06.4,1.82h-.79c.09-.56,0-1-.25-1.32-.26-.33-.64-.49-1.16-.49s-.96.16-1.31.47c-.35.31-.57.74-.66,1.27l-.65,4.1c-.09.54,0,.96.25,1.27.26.31.64.47,1.16.47s.98-.16,1.33-.48c.35-.33.57-.77.66-1.33l.2-1.33h-1.96l.12-.72h2.75l-.32,2.05c-.13.79-.45,1.41-.96,1.86-.51.44-1.16.66-1.94.66h0ZM235.67,29.71l1.39-8.76h4.82l-.12.72h-4.03l-.49,3.11h3.61l-.11.72h-3.62l-.55,3.49h4.03l-.11.72h-4.82Z"/>
        <path id="path10" d="M242.65,29.71l1.39-8.76h2.48c.8,0,1.39.2,1.78.6.39.4.53.96.42,1.67-.05.3-.16.58-.34.84-.17.26-.38.49-.65.67-.26.18-.54.31-.85.37v.04c.5.06.88.3,1.14.71.26.4.34.88.25,1.43-.12.75-.44,1.35-.97,1.79-.53.43-1.19.65-1.99.65h-2.66ZM244.49,24.69h1.42c.46,0,.85-.12,1.15-.37.31-.25.5-.58.58-1.01.06-.42-.02-.76-.24-1.01s-.57-.37-1.03-.37h-1.43l-.44,2.76ZM243.86,28.74h1.49c.5,0,.92-.13,1.25-.4.34-.27.54-.64.62-1.1.07-.48-.02-.87-.26-1.16-.24-.3-.61-.46-1.12-.46h-1.49l-.49,3.12ZM252.31,29.83c-.82,0-1.4-.22-1.76-.67-.36-.46-.48-1.07-.35-1.85l1.01-6.36h1.08l-1.01,6.36c-.08.48-.02.86.17,1.14.19.28.53.42,1.02.42s.86-.14,1.14-.42c.29-.28.47-.66.55-1.14l1.01-6.36h1.08l-1.01,6.36c-.13.78-.44,1.4-.95,1.85-.5.45-1.16.67-1.98.67h0ZM257.01,29.71l1.39-8.76h1.43l1.5,7.5c.02-.2.04-.44.06-.73.02-.3.06-.6.1-.92.04-.33.08-.64.13-.92l.78-4.92h1.04l-1.39,8.76h-1.43l-1.49-7.5c-.02.19-.04.44-.07.73-.02.29-.06.6-.1.92-.04.32-.08.63-.13.92l-.78,4.92h-1.04ZM266.75,29.83c-.79,0-1.39-.22-1.79-.67-.39-.46-.52-1.07-.4-1.85l.62-3.96c.14-.8.46-1.42.98-1.86.52-.44,1.19-.66,2-.66.51,0,.94.11,1.28.32.35.21.61.5.77.88.16.38.2.82.12,1.32h-1.08c.07-.47,0-.85-.23-1.13-.22-.28-.56-.42-1.02-.42s-.86.14-1.18.42c-.31.27-.5.64-.58,1.12l-.62,3.97c-.08.48,0,.86.22,1.14.23.28.58.42,1.04.42s.85-.14,1.15-.42c.31-.28.51-.66.59-1.14l.19-1.2h-1.78l.16-.98h2.86l-.35,2.18c-.14.8-.46,1.42-.98,1.86-.52.44-1.18.66-1.99.66h0Z"/>
      </g>
    </g>
  </g>
  <g id="Layer_2">
    <rect id="rect22" x="28.88" y="234.27" width="60.63" height="39.16" rx="2.83" ry="2.83" style="fill: #1f1f1f;"/>
    <g>
      <path d="M47.76,244.01c-.56,0-1-.16-1.33-.48-.33-.32-.49-.76-.49-1.33v-2.38c0-.57.16-1.01.49-1.33.33-.32.77-.48,1.33-.48s1,.16,1.33.48c.33.32.49.76.49,1.32v2.39c0,.56-.16,1.01-.49,1.33-.33.32-.77.48-1.33.48ZM47.76,243.13c.27,0,.48-.07.62-.22.14-.15.21-.36.21-.63v-2.54c0-.27-.07-.48-.21-.63-.14-.15-.34-.22-.62-.22s-.48.07-.62.22c-.14.15-.21.36-.21.63v2.54c0,.27.07.48.21.63.14.15.34.22.62.22Z" style="fill: #fff;"/>
      <path d="M52.56,244.01c-.57,0-1.02-.16-1.34-.47-.32-.31-.48-.74-.48-1.28v-4.18h1.01v4.17c0,.28.07.49.21.65.14.16.34.23.61.23s.46-.08.6-.23c.14-.15.21-.37.21-.65v-4.17h1.01v4.18c0,.54-.16.96-.48,1.28-.32.31-.77.47-1.34.47Z" style="fill: #fff;"/>
      <path d="M56.86,243.92v-4.94h-1.53v-.9h4.06v.9h-1.53v4.94h-1.01Z" style="fill: #fff;"/>
      <path d="M60.64,243.92v-5.84h1.72c.51,0,.92.15,1.22.44.3.3.46.69.46,1.18s-.15.88-.46,1.18-.71.44-1.22.44h-1.32v2.59h-.4ZM61.04,240.97h1.32c.39,0,.7-.11.93-.34.23-.23.35-.53.35-.92s-.11-.7-.34-.92c-.23-.22-.54-.34-.94-.34h-1.32v2.51Z" style="fill: #fff;"/>
      <path d="M66.97,244.01c-.47,0-.84-.15-1.12-.44-.28-.29-.42-.68-.42-1.16v-4.32h.4v4.32c0,.39.1.69.3.91.2.22.48.33.84.33s.63-.11.83-.33c.2-.22.3-.52.3-.91v-4.32h.4v4.32c0,.49-.14.87-.42,1.16-.28.29-.65.44-1.11.44Z" style="fill: #fff;"/>
      <path d="M71.57,243.92v-5.48h-1.73v-.36h3.84v.36h-1.71v5.48h-.4Z" style="fill: #fff;"/>
    </g>
    <rect id="rect22-2" data-name="rect22" x="28.88" y="61.47" width="60.63" height="39.16" rx="2.83" ry="2.83" style="fill: none; stroke: #1f1f1f; stroke-miterlimit: 10; stroke-width: .25px;"/>
    <g>
      <path d="M48.48,71.13v-.9h1.18v-4.03h-1.18v-.9h3.36v.9h-1.18v4.03h1.18v.9h-3.36Z"/>
      <path d="M53.14,71.13v-5.84h1.22l1.62,4.72c-.02-.17-.03-.37-.05-.6-.02-.23-.03-.47-.04-.71-.01-.24-.02-.45-.02-.64v-2.77h.91v5.84h-1.22l-1.61-4.72c.01.15.02.34.04.56s.03.44.04.67c.01.23.02.44.02.63v2.86h-.91Z"/>
      <path d="M58.24,71.13v-5.84h1.72c.51,0,.92.15,1.22.44.3.3.46.69.46,1.18s-.15.88-.46,1.18-.71.44-1.22.44h-1.32v2.59h-.4ZM58.64,68.17h1.32c.39,0,.7-.11.93-.34.23-.23.35-.53.35-.92s-.11-.7-.34-.92c-.23-.22-.54-.34-.94-.34h-1.32v2.51Z"/>
      <path d="M64.57,71.21c-.47,0-.84-.15-1.12-.44-.28-.29-.42-.68-.42-1.16v-4.32h.4v4.32c0,.39.1.69.3.91.2.22.48.33.84.33s.63-.11.83-.33c.2-.22.3-.52.3-.91v-4.32h.4v4.32c0,.49-.14.87-.42,1.16-.28.29-.65.44-1.11.44Z"/>
      <path d="M69.17,71.13v-5.48h-1.73v-.36h3.84v.36h-1.71v5.48h-.4Z"/>
    </g>
  </g>
  <g id="Layer_1">
    <rect x="92.4" y="61.47" width="310.72" height="211.96" style="fill: none; stroke: #000; stroke-miterlimit: 10; stroke-width: 2px;"/>
  </g>
  <g id="svg8">
    <circle id="path4954" cx="75.2" cy="86.4" r="11.34" style="fill: red;"/>
    <circle id="circle4956" cx="75.2" cy="259.2" r="11.34" style="fill: lime;"/>
    <circle id="circle4958" cx="43.2" cy="259.2" r="11.34" style="fill: blue;"/>
    <circle id="circle66" cx="43.2" cy="86.4" r="11.34" style="fill: #f0f;"/>
    <circle id="circle66-2" data-name="circle66" cx="43.2" cy="172.8" r="11.34" style="fill: #ff7f00;"/>
    <circle id="circle66-3" data-name="circle66" cx="75.2" cy="172.8" r="11.34" style="fill: #007fff;"/>
    <line x1="92.4" y1="304.63" x2="92.4" y2="313.13" style="fill: none; stroke: #000; stroke-miterlimit: 10; stroke-width: .25px;"/>
    <line x1="90.98" y1="308.88" x2="93.81" y2="308.88" style="fill: none; stroke: #000; stroke-miterlimit: 10; stroke-width: .25px;"/>
    <path d="M92.4,210.4c160.8,0,163.85-78.48,310.72-78.48" style="fill: none; stroke: #000; stroke-miterlimit: 10; stroke-width: .25px;"/>
  </g>
</svg>